<svg width="41" height="44" viewBox="0 0 41 44" fill="none" xmlns="http://www.w3.org/2000/svg">
<g clip-path="url(#clip0_37_382)">
<path d="M38.6744 15.6328L36.821 16.3125L35.5854 19.0312L32.5832 8.02086C32.1651 6.48754 30.8824 5.4375 29.4272 5.4375H12.0901C10.635 5.4375 9.3523 6.48755 8.9342 8.02086L5.93193 19.0312L4.69636 16.3125L2.84302 15.6328" stroke="#2E312F" stroke-width="2.5" stroke-linecap="round" stroke-linejoin="round"/>
<path d="M3.46082 35.2858V38.0625C3.46082 38.7835 3.72117 39.4752 4.18459 39.985C4.64801 40.4949 5.27657 40.7813 5.93194 40.7813C6.58732 40.7813 7.21587 40.4949 7.67929 39.985C8.14271 39.4752 8.40307 38.7835 8.40307 38.0625V35.4435" stroke="#2E312F" stroke-width="2.5" stroke-linecap="round" stroke-linejoin="round"/>
<path d="M38.0566 35.2858V38.0625C38.0566 38.7835 37.7963 39.4752 37.3329 39.985C36.8694 40.4949 36.2408 40.7813 35.5854 40.7813C34.9301 40.7813 34.3014 40.4949 33.838 39.985C33.3746 39.4752 33.1143 38.7835 33.1143 38.0625V35.4826" stroke="#2E312F" stroke-width="2.5" stroke-linecap="round" stroke-linejoin="round"/>
<path d="M5.52009 19.0312H20.7587H35.9973C36.8711 19.0312 37.7091 19.4479 38.3271 20.1894C38.945 20.9311 39.2922 21.937 39.2922 22.9858V33.3665C39.2922 33.8908 39.1185 34.3938 38.8096 34.7647C38.5007 35.1355 38.0816 35.3438 37.6447 35.3438H3.87267C3.43574 35.3438 3.01672 35.1355 2.70776 34.7647C2.39882 34.3938 2.22525 33.8908 2.22525 33.3665V22.9858C2.22525 21.937 2.57238 20.9311 3.19029 20.1894C3.80819 19.4479 4.64625 19.0312 5.52009 19.0312Z" stroke="#2E312F" stroke-width="2.5" stroke-linecap="round" stroke-linejoin="round"/>
<path d="M2.22525 25.8281H9.22678L11.0801 29.9062" stroke="#2E312F" stroke-width="2.5" stroke-linecap="round" stroke-linejoin="round"/>
<path d="M24.4654 29.9062H17.052" stroke="#2E312F" stroke-width="2.5" stroke-linecap="round" stroke-linejoin="round"/>
<path d="M39.2922 25.8281H32.2906L30.4373 29.9062" stroke="#2E312F" stroke-width="2.5" stroke-linecap="round" stroke-linejoin="round"/>
</g>
<defs>
<clipPath id="clip0_37_382">
<rect width="39.538" height="43.5" fill="white" transform="translate(0.989685)"/>
</clipPath>
</defs>
</svg>
