<svg width="41" height="44" viewBox="0 0 41 44" fill="none" xmlns="http://www.w3.org/2000/svg">
<g clip-path="url(#clip0_37_695)">
<path d="M38.6744 15.6328L36.821 16.3125L35.5854 19.0312L32.5832 8.02086C32.1651 6.48754 30.8824 5.4375 29.4272 5.4375H12.0901C10.635 5.4375 9.35229 6.48755 8.9342 8.02086L5.93193 19.0312L4.69636 16.3125L2.84302 15.6328" stroke="#2E312F" stroke-width="2.5" stroke-linecap="round" stroke-linejoin="round"/>
<path d="M3.4608 35.2858V38.0625C3.4608 38.7835 3.72116 39.4752 4.18458 39.985C4.648 40.4949 5.27655 40.7813 5.93193 40.7813C6.5873 40.7813 7.21586 40.4949 7.67928 39.985C8.1427 39.4752 8.40305 38.7835 8.40305 38.0625V35.4435" stroke="#2E312F" stroke-width="2.5" stroke-linecap="round" stroke-linejoin="round"/>
<path d="M38.0566 35.2858V38.0625C38.0566 38.7835 37.7963 39.4752 37.3329 39.985C36.8694 40.4949 36.2408 40.7813 35.5854 40.7813C34.9301 40.7813 34.3014 40.4949 33.838 39.985C33.3746 39.4752 33.1143 38.7835 33.1143 38.0625V35.4826" stroke="#2E312F" stroke-width="2.5" stroke-linecap="round" stroke-linejoin="round"/>
<path d="M5.52007 19.0312H20.7587H35.9973C36.8711 19.0312 37.7091 19.4479 38.3271 20.1894C38.945 20.9311 39.2921 21.937 39.2921 22.9858V33.3665C39.2921 33.8908 39.1185 34.3938 38.8096 34.7647C38.5007 35.1355 38.0816 35.3438 37.6447 35.3438H3.87265C3.43572 35.3438 3.0167 35.1355 2.70775 34.7647C2.3988 34.3938 2.22523 33.8908 2.22523 33.3665V22.9858C2.22523 21.937 2.57237 20.9311 3.19028 20.1894C3.80817 19.4479 4.64623 19.0312 5.52007 19.0312Z" stroke="#2E312F" stroke-width="2.5" stroke-linecap="round" stroke-linejoin="round"/>
<path d="M24.4654 29.9062H17.052" stroke="#2E312F" stroke-width="2.5" stroke-linecap="round" stroke-linejoin="round"/>
<path d="M39.2921 25.8281H32.2906L30.4373 29.9062" stroke="#2E312F" stroke-width="2.5" stroke-linecap="round" stroke-linejoin="round"/>
<path d="M2.22523 25.8281H9.22676L11.0801 29.9062" stroke="#2E312F" stroke-width="2.5" stroke-linecap="round" stroke-linejoin="round"/>
<path d="M39 7.5C39 11.6421 35.6421 15 31.5 15C27.3579 15 24 11.6421 24 7.5C24 3.35786 27.3579 0 31.5 0C35.6421 0 39 3.35786 39 7.5Z" fill="#2E312F"/>
<path d="M35.2254 6.56117C35.5915 6.20403 35.5915 5.625 35.2254 5.26785C34.8593 4.91072 34.2657 4.91072 33.8996 5.26785L30.8125 8.27925L29.6004 7.09688C29.2343 6.73974 28.6407 6.73974 28.2746 7.09688C27.9085 7.45402 27.9085 8.03306 28.2746 8.3902L30.1496 10.2192C30.5157 10.5763 31.1093 10.5763 31.4754 10.2192L35.2254 6.56117Z" fill="#D0D0D0"/>
</g>
<defs>
<clipPath id="clip0_37_695">
<rect width="39.538" height="43.5" fill="white" transform="translate(0.98967)"/>
</clipPath>
</defs>
</svg>
