<svg width="35" height="33" viewBox="0 0 35 33" fill="none" xmlns="http://www.w3.org/2000/svg">
<path d="M1.0632 32.6965H5.18672C5.77391 32.6965 6.24992 32.2204 6.24992 31.6333V22.3132C6.24992 21.726 5.77383 21.25 5.18672 21.25H1.0632C0.476016 21.25 0 21.7261 0 22.3132V31.6333C0 32.2204 0.476094 32.6965 1.0632 32.6965Z" fill="#2E312F"/>
<path d="M10.4382 32.6965H14.5617C15.1489 32.6965 15.6249 32.2204 15.6249 31.6333V16.0632C15.6249 15.476 15.1488 15 14.5617 15H10.4382C9.85102 15 9.375 15.4761 9.375 16.0632V31.6333C9.375 32.2204 9.85109 32.6965 10.4382 32.6965Z" fill="#2E312F"/>
<path d="M19.8132 32.6965H23.9367C24.5239 32.6965 24.9999 32.2204 24.9999 31.6333V8.5632C24.9999 7.97602 24.5238 7.5 23.9367 7.5H19.8132C19.226 7.5 18.75 7.97609 18.75 8.5632V31.6333C18.75 32.2204 19.2261 32.6965 19.8132 32.6965Z" fill="#2E312F"/>
<path d="M29.1882 32.6965H33.3117C33.8989 32.6965 34.3749 32.2204 34.3749 31.6333V1.0632C34.3749 0.476016 33.8988 0 33.3117 0H29.1882C28.601 0 28.125 0.476094 28.125 1.0632V31.6333C28.125 32.2204 28.6011 32.6965 29.1882 32.6965Z" fill="#2E312F"/>
</svg>
